<svg xmlns="http://www.w3.org/2000/svg" viewBox="0 0 23.15 19.41"><defs><style>.cls-1{fill:#575756;}</style></defs><title>Recurso 3</title><g id="Capa_2" data-name="Capa 2"><g id="Capa_1-2" data-name="Capa 1"><path class="cls-1" d="M19.48,9.49l-.16,0,.82-.82a5.06,5.06,0,0,0-6-8L13,1.24a24.36,24.36,0,0,0-8.6,8l-.74.21a5.06,5.06,0,0,0,1.39,9.92h13a5.06,5.06,0,0,0,1.39-9.92Zm-.11.75a29.32,29.32,0,0,1-.27,3,.06.06,0,0,1-.12,0c-.14-1-.24-2.1-.28-3.15l.58.16.09,0Zm-4.89-9,.09,0c.66.73,1.3,1.5,1.89,2.28a.06.06,0,1,1-.08.08c-.84-.63-1.65-1.31-2.43-2ZM13.26,2A33.32,33.32,0,0,0,15.93,4.2a.82.82,0,0,0,.49.16A.85.85,0,0,0,17,4.13a.81.81,0,0,0,.07-1c-.55-.74-1.15-1.45-1.76-2.14A4.3,4.3,0,0,1,19.61,8.1L18.5,9.21l-.23-.06a24,24,0,0,0-6.4-.93c-.68-.83-1.41-1.64-2.16-2.4L9,5.07c.37-.33.75-.66,1.14-1l.14.14a32.92,32.92,0,0,0,3.46,3,.84.84,0,0,0,.48.16.78.78,0,0,0,.57-.24.81.81,0,0,0,.08-1,32.8,32.8,0,0,0-2.89-3.34c.43-.29.88-.55,1.33-.81ZM14.93,9.2l.75.12a31.47,31.47,0,0,1-.32,4.44c0,.06-.1.06-.11,0a31.64,31.64,0,0,1-.32-4.46ZM11.2,9H12v1.09a31.86,31.86,0,0,1-.32,4.46.06.06,0,0,1-.11,0,31.75,31.75,0,0,1-.32-4.46Zm.1-5.77a31.21,31.21,0,0,1,2.92,3.37.06.06,0,0,1-.08.08,31.41,31.41,0,0,1-3.38-2.93l-.07-.07ZM8.41,5.58l.77.77c.59.6,1.16,1.23,1.71,1.87l-.77,0c-.5-.44-1-.91-1.47-1.38l-.77-.77.26-.27.27-.26ZM6,8.46l.31.33c-.27.05-.54.12-.8.19l.42-.59Zm1.18.15c-.21-.23-.43-.45-.65-.67L6.4,7.79c.31-.39.64-.76,1-1.13l.75.75,1,.93C8.46,8.4,7.82,8.5,7.19,8.61Zm1,.59v.1a31.63,31.63,0,0,1-.31,4.46.06.06,0,0,1-.12,0,31.46,31.46,0,0,1-.31-4.44c.25-.05.49-.09.74-.12Zm-3.76.85a30.22,30.22,0,0,1-.29,3.15c0,.06-.1.06-.11,0-.14-1-.23-2-.28-3l.1,0Zm13.64,8.61h-13a4.31,4.31,0,0,1-2-8.11c0,.92.14,1.85.27,2.76a.82.82,0,0,0,.8.69.81.81,0,0,0,.79-.69,31.23,31.23,0,0,0,.31-3.48c.5-.14,1-.26,1.51-.37A34.29,34.29,0,0,0,7,13.87a.81.81,0,0,0,1.6,0A33.32,33.32,0,0,0,9,9.3V9.1c.5,0,1-.09,1.49-.11v1.06a31.59,31.59,0,0,0,.33,4.56.8.8,0,0,0,.79.69.81.81,0,0,0,.8-.69,33.07,33.07,0,0,0,.32-4.56V9c.5,0,1,.06,1.5.11v.2a33.32,33.32,0,0,0,.32,4.57.82.82,0,0,0,.8.69.81.81,0,0,0,.79-.69,31,31,0,0,0,.32-4.41c.51.11,1,.23,1.52.37a33.8,33.8,0,0,0,.3,3.48.81.81,0,0,0,1.6,0c.13-.91.22-1.84.27-2.76a4.31,4.31,0,0,1-2,8.11Z"/></g></g></svg>