<svg xmlns="http://www.w3.org/2000/svg" viewBox="0 0 18.29 24.75"><defs><style>.cls-1{opacity:0.5;}.cls-2{fill:#fff;}</style></defs><title>map</title><g id="Capa_2" data-name="Capa 2"><g id="Capa_1-2" data-name="Capa 1"><g class="cls-1"><path class="cls-2" d="M9.15,3.75a5.4,5.4,0,1,0,5.39,5.4A5.4,5.4,0,0,0,9.15,3.75Zm0,9.34a3.95,3.95,0,1,1,3.94-3.94A3.95,3.95,0,0,1,9.15,13.09Z"/><path class="cls-2" d="M9.15,0A9.15,9.15,0,0,0,0,9.15c0,2.9,2.44,7.24,3.89,9.56a41.59,41.59,0,0,0,2.9,4.1c1.46,1.79,2,1.94,2.36,1.94s.87-.15,2.33-1.94a42.33,42.33,0,0,0,2.89-4.1c1.47-2.33,3.92-6.67,3.92-9.56A9.15,9.15,0,0,0,9.15,0Zm4.22,17.58a29.11,29.11,0,0,1-4.23,5.63,27.34,27.34,0,0,1-4.23-5.62C2.71,14,1.45,10.93,1.45,9.15a7.7,7.7,0,1,1,15.39,0C16.84,10.92,15.58,14,13.37,17.58Z"/></g></g></g></svg>