<svg xmlns="http://www.w3.org/2000/svg" viewBox="0 0 13.73 13.75"><defs><style>.cls-1{fill:#fff;}</style></defs><title>Recurso 1</title><g id="Capa_2" data-name="Capa 2"><g id="Capa_1-2" data-name="Capa 1"><path class="cls-1" d="M10.86,8.52a1.3,1.3,0,0,0-2,0L8,9.43l-.23-.12-.28-.15A9.88,9.88,0,0,1,5.07,7a6,6,0,0,1-.79-1.23c.24-.22.46-.45.68-.66l.24-.25a1.33,1.33,0,0,0,0-2L4.41,2l-.27-.28c-.17-.18-.36-.36-.55-.54a1.34,1.34,0,0,0-1-.42,1.42,1.42,0,0,0-1,.42h0l-1,1A2.18,2.18,0,0,0,0,3.57,5.14,5.14,0,0,0,.38,5.73,12.63,12.63,0,0,0,2.6,9.43,13.74,13.74,0,0,0,7.15,13a7.16,7.16,0,0,0,2.56.76h.18A2.17,2.17,0,0,0,11.56,13h0c.15-.18.32-.35.5-.53s.26-.24.38-.37a1.45,1.45,0,0,0,.44-1,1.36,1.36,0,0,0-.45-1Zm1,3.06h0c-.11.12-.23.23-.36.35s-.38.37-.56.58A1.39,1.39,0,0,1,9.89,13H9.76a6.44,6.44,0,0,1-2.27-.68A12.88,12.88,0,0,1,3.21,8.93,11.71,11.71,0,0,1,1.12,5.45,4,4,0,0,1,.8,3.64a1.29,1.29,0,0,1,.4-.86l1-1a.63.63,0,0,1,.44-.21.62.62,0,0,1,.42.2h0c.18.17.35.34.52.52l.28.28.79.79a.55.55,0,0,1,0,.9l-.25.25c-.24.25-.48.49-.73.71v0a.58.58,0,0,0-.15.66v0a6.14,6.14,0,0,0,.93,1.53h0A10.61,10.61,0,0,0,7,9.82a2.09,2.09,0,0,0,.36.19l.29.16,0,0a.6.6,0,0,0,.73-.13l1-1a.67.67,0,0,1,.44-.22.59.59,0,0,1,.42.21h0l1.6,1.6A.58.58,0,0,1,11.9,11.58Z"/><path class="cls-1" d="M7.42,3.27a3.76,3.76,0,0,1,2,1,3.68,3.68,0,0,1,1,2,.4.4,0,0,0,.39.33h.07a.4.4,0,0,0,.32-.45A4.54,4.54,0,0,0,7.56,2.5a.39.39,0,0,0-.14.77Z"/><path class="cls-1" d="M13.73,6.07a7.38,7.38,0,0,0-2.07-4A7.32,7.32,0,0,0,7.67,0a.38.38,0,0,0-.45.32.39.39,0,0,0,.32.45,6.64,6.64,0,0,1,3.57,1.85A6.49,6.49,0,0,1,13,6.19a.4.4,0,0,0,.39.33h.07A.39.39,0,0,0,13.73,6.07Z"/></g></g></svg>